<?xml version="1.0" encoding="UTF-8"?>
<svg id="Camada_1" data-name="Camada 1" xmlns="http://www.w3.org/2000/svg" viewBox="0 0 485.65 640.79">
  <defs>
    <style>
      .cls-1 {
        fill: #f7c201;
      }

      .cls-2 {
        fill: #fff;
      }

      .cls-3, .cls-4, .cls-5 {
        fill: #dadada;
      }

      .cls-6 {
        fill: #07903d;
      }

      .cls-7, .cls-8 {
        fill: #1d1d1b;
      }

      .cls-9 {
        fill: #2d2766;
      }

      .cls-8 {
        stroke: #dadada;
        stroke-width: 8.5px;
      }

      .cls-8, .cls-4, .cls-5 {
        stroke-linejoin: round;
      }

      .cls-4 {
        stroke-width: 1.42px;
      }

      .cls-4, .cls-5 {
        stroke: #1d1d1b;
      }

      .cls-5 {
        stroke-width: 1.98px;
      }
    </style>
  </defs>
  <path class="cls-8" d="M481.39,134.06L395.28,24.89s-86.73,30.22-152.45-20.64C177.1,55.11,90.37,24.89,90.37,24.89L4.25,134.06c42.04,67.13,30.51,128.84,19.67,161.49-10.85,32.65-34.58,128.06,21.7,213.5,56.28,85.44,134.94,101.04,160.72,105.78,25.78,4.75,36.48,21.7,36.48,21.7,0,0,10.7-16.95,36.48-21.7,25.78-4.75,104.44-20.34,160.72-105.78,56.28-85.44,32.55-180.86,21.7-213.5-10.85-32.65-22.38-94.36,19.67-161.49Z"/>
  <g id="g4933">
    <g id="g2612">
      <g id="g2631">
        <path id="path16" class="cls-9" d="M296.71,196.41c1.04-.69,2.06-1.66,2.25-2.95,.16-1.09-.66-1.96-1.44-2.58-2.26-1.71-4.86-2.88-7.47-3.94-5.63-2.25-11.53-3.75-17.43-5.12-9.43-1.83-19-3.09-28.62-3.16-10.31-.08-20.59,1.23-30.69,3.21-6.02,1.42-12.04,2.94-17.77,5.31-2.41,1.01-4.79,2.13-6.89,3.7-.78,.64-1.63,1.51-1.47,2.61,.21,1.31,1.27,2.23,2.27,2.99-1.02-.09-1.96-.53-2.93-.83-.93-.35-1.99-.52-2.71-1.25-.9-.87-1.43-2.03-2.2-3.01-.56-.77-1.33-1.4-1.64-2.32-.61-1.65-1.08-3.35-1.83-4.95-.36-.79-.68-1.73-.24-2.57,.51-.97,1.5-1.53,2.33-2.2,6.07-4.1,12.68-7.39,19.59-9.81,4.03-1.54,8.3-2.22,12.47-3.26,4.56-1.17,9.25-1.68,13.92-2.23,3.87-.36,7.75-.53,11.63-.74h10.48c7.69,.34,15.41,.88,22.97,2.38,3.76,.87,7.53,1.73,11.29,2.62,7.65,2.33,15,5.65,21.72,9.99,1.23,.75,2.43,1.58,3.48,2.59,.7,.72,.85,1.85,.41,2.74-.77,1.69-1.34,3.46-1.94,5.21-.32,1.16-1.32,1.91-1.96,2.87-.91,1.2-1.53,2.82-3.05,3.37"/>
        <path id="path2629" class="cls-9" d="M297.81,196.77c1.25-.28,2.52-.56,3.65-1.18,1.83-.97,3.2-2.64,4.12-4.47,2.73,.68,5.42,1.53,8.12,2.33,5.3,1.69,10.47,3.75,15.79,5.37,.44,.17,1.02,.21,1.27,.68-1.05,.46-2.21,.57-3.31,.86-1.97,.48-3.91,1.04-5.9,1.44-1.38,.31-2.82,.41-4.13,1,1.81,2.13,4.07,3.83,5.84,6.01,1.43,1.75,3.04,3.39,4.15,5.38-.59-.05-1.16-.16-1.71-.37-5.83-2.1-11.78-3.85-17.76-5.47-4.77-1.33-9.59-2.44-14.45-3.39-3.21-.63-6.37-1.45-9.55-2.19-.11-.78-.34-1.73,.3-2.36,1.14-1.17,2.82-1.52,4.34-1.96,2.84-.67,5.73-1.2,8.63-1.51"/>
        <path id="path104" class="cls-9" d="M283.32,189.68c.71-1.32,1.74-2.48,3.01-3.28,1.84,.72,3.77,1.21,5.57,2.03,1.89,.85,3.65,1.99,5.25,3.3,.68,.58,1.4,1.59,.81,2.47-.51,.76-1.26,1.35-2.02,1.85-1.83,.68-3.83,.59-5.7,1.09-2.19,.53-4.53,.96-6.35,2.39-.77,.57-1.22,1.51-1.04,2.47-1.34-.43-2.92-1.11-3.36-2.58-.27-1.91,1.3-3.26,1.96-4.9,.59-1.63,1.01-3.33,1.86-4.85Z"/>
        <path id="path108" class="cls-9" d="M190.04,190.92c2.79-2.18,6.17-3.34,9.51-4.39,.5-.19,.85,.28,1.19,.55,1.2,1.01,2.06,2.35,2.65,3.79,.79,1.78,1.07,3.78,2.23,5.38,.69,.93,1.19,2.08,.99,3.26-.43,1.45-2.01,2.01-3.28,2.52,.16-1.09-.44-2.09-1.32-2.69-1.87-1.3-4.17-1.73-6.34-2.25-1.79-.46-3.69-.36-5.43-1.03-.86-.53-1.67-1.22-2.19-2.08-.42-1.4,1.03-2.34,2-3.06Z"/>
        <path id="path116" class="cls-9" d="M176.93,192.14c1.21-.38,2.41-.8,3.66-1,1.18,2.54,3.44,4.63,6.2,5.27,4.28,.99,8.73,1.22,12.9,2.68,.97,.36,2.01,.83,2.54,1.77,.22,.58,.07,1.21,.03,1.81-6.62,1.94-13.49,2.86-20.15,4.65-7.33,1.88-14.62,3.98-21.76,6.52-.51,.2-1.05,.3-1.6,.34,1.31-2.37,3.29-4.29,5-6.38,1.48-1.55,3.07-3.01,4.59-4.52,.25-.15,.39-.61-.02-.66-1.42-.53-2.96-.59-4.41-.97-1.97-.42-3.91-.98-5.87-1.45-.91-.19-1.87-.27-2.69-.76,.33-.39,.86-.47,1.32-.64,6.8-2.07,13.36-4.88,20.24-6.67Z"/>
      </g>
      <g id="g2596">
        <path id="path92" class="cls-2" d="M185.14,182.26c-.53-1.82,.78-4,2.72-4.17,1.18-.28,2.52,.33,3.02,1.45-.4,.22-.84,.37-1.25,.55-.52-.49-1.3-1-2.02-.58-.88,.32-1.3,1.38-.99,2.24,.07,1.11,.85,2.08,1.87,2.48,1.04,.19,2.15-.71,1.9-1.82,.45-.26,.93-.54,1.47-.51,.21,1.34-.5,2.84-1.79,3.38-.99,.47-2.28,.51-3.19-.18-.95-.65-1.38-1.8-1.73-2.84Z"/>
        <path id="path20" class="cls-2" d="M239.49,166.74c-.05,2.37-.12,4.73-.25,7.09,.47,.23,.99,.2,1.5,.24,.05-.94,.07-1.89,.08-2.83,.74,0,1.48-.04,2.22,.04,.88,.65,.42,1.86,.57,2.79,.54,0,1.08,0,1.62,0-.4-1.14,.06-2.48-.73-3.48,.38-.37,.77-.76,.89-1.3,.18-1.1-.7-2.3-1.85-2.33-1.35-.15-2.7-.22-4.05-.23Zm1.33,1.34c.83,0,1.65,.04,2.48,.1,.68,.21,.94,1.34,.26,1.7-.86,.18-1.76,.1-2.63,.08-.23-.56-.03-1.27-.1-1.88Z"/>
        <path id="path24" class="cls-2" d="M234.41,166.97c-.76,.01-1.54,.2-2.11,.73-.81,.61-.86,1.69-1.09,2.59-.03,1.31,.27,2.81,1.4,3.62,1.67,1.32,4.57,.58,5.2-1.52,.31-1.37,.33-2.95-.52-4.15-.5-1.05-1.83-1.27-2.88-1.27Zm.18,1.31c.64-.01,1.27,.22,1.55,.85,.63,1.23,.7,3.23-.71,3.95-1,.64-2.3-.21-2.59-1.23-.24-1.16-.32-2.76,.9-3.41,.26-.09,.55-.15,.84-.16Z"/>
        <path id="path28" class="cls-2" d="M247.24,166.98c1.77,.09,3.51,.38,5.27,.57-.02,.29-.06,.88-.08,1.17-1.31-.05-2.63-.17-3.93-.35-.02,.51-.02,1.01,0,1.52,1.15,.04,2.28,.32,3.43,.35-.03,.43-.05,.86-.07,1.3-1.21-.02-2.4-.33-3.61-.4-.03,.65-.06,1.29-.06,1.94,1.26,.13,2.52,.32,3.79,.31,0,.42,0,.85-.02,1.27-1.83-.14-3.64-.43-5.46-.59,.33-2.35,.5-4.72,.75-7.08Z"/>
        <path id="path32" class="cls-2" d="M222.3,168.57c.47-.23,1.03-.26,1.54-.43-.43,1.62-1.03,3.2-1.53,4.8-.04,.91,.27,1.8,.32,2.72-.44,.1-.89,.18-1.34,.24-.23-.91-.24-1.9-.63-2.76-.86-1.13-1.72-2.27-2.61-3.38-.16-.19-.26-.4-.31-.64,.6-.09,1.2-.22,1.81-.16,.48,1,1.13,1.91,1.71,2.86,.4-1.07,.64-2.19,1.03-3.25Z"/>
        <path id="path44" class="cls-2" d="M259.79,168.31c-.33,2.36-.68,4.73-1.1,7.07,.5,.13,1.01,.22,1.52,.29,.07-.95,.24-1.88,.35-2.83,.81,.24,1.8,.02,2.47,.6,.22,.86-.13,1.78,.08,2.66,.52,.05,1.04,.09,1.57,.14-.49-.8,.13-1.69,0-2.55-.1-.35-.3-.66-.4-1.01,1.42-.69,1.48-3.08-.12-3.59-1.43-.38-2.9-.58-4.37-.78Zm1.24,1.53c.98,.04,2.05-.02,2.86,.63,.09,.62-.09,1.64-.92,1.53-.74-.12-1.55-.11-2.22-.5,.14-.54,.23-1.1,.27-1.66Z"/>
        <path id="path48" class="cls-2" d="M215.36,169.76c.51-.1,1.02-.23,1.53-.37-.11,2.52-.5,5.03-.89,7.53-.46,.12-.93,.23-1.4,.33-1.22-2.24-2.79-4.3-3.75-6.68,.49-.05,.98-.11,1.48-.16,.65,1.36,1.41,2.66,2.09,4,.17,.29,.28,.65,.58,.84,.12-1.83,.34-3.65,.36-5.48Z"/>
        <path id="path56" class="cls-2" d="M267.2,169.82c1.74,.2,3.45,.65,5.18,.91-.04,.43-.1,.85-.2,1.26-1.26-.29-2.52-.6-3.81-.71-.05,.51-.11,1.01-.17,1.52,1.12,.39,2.43,.23,3.47,.8-.14,.34-.24,.69-.28,1.05-1.12-.12-2.21-.44-3.34-.56-.45,.4-.25,1.17-.41,1.72,1.28,.21,2.55,.49,3.83,.7-.06,.41-.11,.82-.17,1.23-1.79-.29-3.57-.68-5.37-.9,.23-2.35,.86-4.68,1.26-7.02Z"/>
        <path id="path60" class="cls-2" d="M208.53,171.33c.54-.08,1.08-.2,1.6-.35-.22,1.7-.89,3.33-1.12,5.02,.2,.85,.5,1.67,.65,2.53-.45,.16-.9,.33-1.38,.3-.18-.85-.37-1.73-.69-2.53-1.14-1.27-2.35-2.47-3.54-3.7,.52-.12,1.03-.25,1.54-.39,.87,.78,1.52,1.76,2.38,2.53,.24-1.13,.28-2.29,.56-3.42Z"/>
        <path id="path64" class="cls-2" d="M273.5,171.12c1.89,.49,3.82,.83,5.68,1.41-.15,.36-.22,.75-.26,1.13-.73-.12-1.44-.34-2.18-.39-.4,1.94-.92,3.85-1.45,5.75-.45-.16-.9-.28-1.37-.37,.35-1.97,.97-3.88,1.42-5.82-.7-.23-1.46-.24-2.12-.57,.11-.38,.2-.76,.28-1.14Z"/>
        <path id="path68" class="cls-2" d="M281.41,173.18c-1.25,1.77-2.48,3.55-3.75,5.31-.18,.3-.53,.56-.52,.94,.47,.13,.94,.26,1.42,.39,.26-.42,.53-.85,.77-1.29,.91,.18,1.83,.4,2.68,.78-.02,.51-.02,1.02,0,1.53,.53,.11,1.05,.22,1.59,.32-.21-2.52-.35-5.04-.5-7.56-.54-.23-1.1-.37-1.68-.43Zm.44,2.01c-.02,.93,.1,1.86,.16,2.79-.61-.19-1.37-.14-1.86-.58,.62-.69,.95-1.65,1.7-2.22Z"/>
        <path id="path72" class="cls-2" d="M286.6,174.64c.72,.06,1.37,.44,2.06,.61,0,1.84-.28,3.66-.37,5.49,1.08-1.44,1.92-3.07,2.83-4.62,.76,.05,1.43,.45,2.16,.63-.67,2.26-1.5,4.47-2.16,6.73-.47-.07-.93-.18-1.38-.31,.52-1.87,1.24-3.69,1.71-5.58-1.02,1.68-1.97,3.4-2.99,5.08-.5-.16-1-.35-1.48-.55,.35-1.98,.49-4,.79-5.99-.05,0-.15,0-.19,0-.51,1.87-1.24,3.67-1.7,5.55-.45,.02-.89-.07-1.33-.16,.41-2.36,1.47-4.57,2.04-6.89Z"/>
        <path id="path76" class="cls-2" d="M195.54,175.36c-.18,0-.36,.04-.53,.1-.94,.35-2.05,.63-2.57,1.58-.87,1.92-.14,4.37,1.57,5.57,1.76,.95,4.41,.07,4.98-1.93,.43-1.12-.1-2.27-.49-3.31-.47-1.14-1.72-2.07-2.97-2Zm-.27,1.36c.47-.04,.96,.12,1.31,.45,.91,.81,1.17,2.13,1.02,3.29-.44,1.31-2.49,1.69-3.24,.47-.89-1.08-1.35-3.13,.1-3.93,.24-.16,.52-.25,.81-.27Z"/>
        <path id="path88" class="cls-2" d="M297.07,177.92c-1.17,1.6-2.44,3.12-3.63,4.7-.3,.45-.83,.79-.83,1.38,.43,.12,.85,.24,1.28,.36,.35-.38,.68-.79,1-1.2,.83,.27,1.64,.6,2.47,.86,0,.49,0,.97,0,1.46,.47,.21,.94,.42,1.41,.64,.05-2.51-.14-5.02-.14-7.54-.46-.35-1.02-.51-1.56-.68Zm.3,2.03c-.01,.9-.02,1.8-.01,2.71-.55-.13-1.1-.27-1.64-.43,.43-.82,.92-1.71,1.65-2.28Z"/>
      </g>
    </g>
    <g id="g2635">
      <path id="path100" class="cls-9" d="M243.2,181.54l4.63,13.62,15.63,.02-12.35,9.61,4.49,14.6-12.38-8.92-12.39,9.17,4.86-15.03-12.29-9.42,15.27-.02,4.54-13.63Z"/>
      <path id="path112" class="cls-1" d="M239.88,196.35l3.34-10.03,3.5,10.07,11.7,.03-9.14,7.17,2.85,10.84-8.67-6.35-9.53,6.79,3.7-11.17-9.2-7.28,11.46-.07Z"/>
    </g>
    <g id="g2659">
      <path id="path120" class="cls-9" d="M215.65,229.29c8.84-6.27,19.84-9.69,30.7-8.79,10.02,.74,19.6,5,27.29,11.4,7.55,6.24,13.4,14.36,17.59,23.17,4.71,9.86,7.45,20.58,8.79,31.4,1.16,9.29,1.23,18.68,.69,28.02-10.43-4.56-21.16-8.34-32.29-10.73l22.39-2.68-28.42-3.12,8.19-4.52-9.48-.07,6.74-6.82-8.8,2.74,17.42-21.97-21.79,17.82,2.27-8.78-6.52,6.52-.35-9.44-4.06,8.12-3.22-27.76-2.92,27.73-4.3-7.15-.07,8.5-6.33-6.03,2.28,8.29-22.31-18.04,17.72,22.2-8.59-2.72,6.76,7.05-9.72-.17,8.05,4.56-29.05,3.01,22.38,2.79c-10.65,2.36-20.89,6.22-30.91,10.49-.2,.08-.41,.14-.63,.18-1.14-18.12,.36-36.73,7.01-53.75,4.81-12.3,12.55-23.77,23.46-31.43Z"/>
      <path id="path140" class="cls-1" d="M242.81,253.79l3.22,27.76,3.94-7.84,.46,9.16,6.52-6.52-2.27,8.78,21.79-17.82-17.42,21.97,8.8-2.74-6.74,6.82,9.48,.07-8.19,4.52,28.42,3.12-21.47,2.86c-21.53-4.52-32.06-3.64-52.62-.13-7.45-1.03-14.96-1.58-22.38-2.79l29.05-3.01-8.05-4.56,9.72,.17-6.76-7.05,8.59,2.72-17.72-22.2,22.31,18.04-2.28-8.29,6.33,6.03,.07-8.5,4.3,7.15,2.92-27.73Z"/>
      <path id="path164" class="cls-9" d="M242.09,301.73c.29-.3,.58-.6,.87-.89,.22,.19,.44,.38,.66,.58,16,16.14,31.91,32.36,47.91,48.5-2.39,6.68-6.01,12.92-10.54,18.38-12.65-12.32-25.13-24.82-37.79-37.14-13.36,11.44-25.64,24.66-38.14,37.17-.08-.06-.25-.18-.33-.24-4.5-5.34-7.86-11.53-10.5-17.96,3.46-3.67,7.1-7.18,10.63-10.78,12.38-12.57,24.85-25.04,37.23-37.61Z"/>
      <path id="path180" class="cls-1" d="M242.69,331.14c.18-.19,.36-.18,.53,0,12.68,12.3,25.1,24.86,37.79,37.14-8.62,10.42-21.11,17.03-34.55,17.9-1.84,.29-3.72,.15-5.57,.17-15.84-1.34-25.1-6.96-35.63-17.54-.04-.13-.12-.38-.16-.5,12.55-12.38,25.03-24.83,37.61-37.18Z"/>
    </g>
    <g id="g4774">
      <path id="path336" class="cls-9" d="M336.24,387.36c7.23-1.78,12.63-.9,18.46,4.38,4.45,5.05,1.49,11.28-.14,16.88-1.01,4.85-3.16,8.79-7.4,11.44-5.35,2.71-11.14,4.63-17.13,5.24-8.99,.81-17.21-3.27-25.85-4.83-16.72-3.22-33.57,1.1-50.31,2.07-17.33,1.26-34.56-1.2-51.74-3.08-14.29-2.05-27.27,3.61-41.02,5.86-8.03,.24-18.97-2.06-25.22-7.61-4.29-7.17-10.44-19.48-3.61-26.71,6.2-4.66,10.31-5.2,17.47-3.66,.62,.71-5.76,2.38-6.53,2.63-12.22,3.38-5.93,8.7,2.54,9.51l21.26-1.98c9.11-1.08,18.22-2.1,27.35-3.01,.05-.3,.11-.6,.18-.9-.02,.22-.06,.67-.08,.89,19.15,.13,37.77,2.79,57.04,2.86,13.29-1.54,26.55-2.82,39.93-2.83,11.73,.88,23.37,2.66,35.08,3.75,7.27,1.4,14.36,1.7,21.56-.18,4.94-1.91,2.9-4.47-.88-6.42-2.17-1.8-9.6-2.34-10.98-4.28Z"/>
      <g id="g2679">
        <path id="path352" class="cls-2" d="M274.39,403.15c2.78-3.15,8.14-2.34,9,1.93-.83,.04-1.65,.08-2.48,.1-2.8-4.61-5.7-.61-5.16,3.47,.57,3.08,4.53,3.57,5.31,.38,.8-.04,1.61-.08,2.42-.09-.93,5.93-8.84,5.86-10.17,.2-.23-2.02-.21-4.31,1.09-5.99Z"/>
        <path id="path356" class="cls-2" d="M289.91,401.64c-1.66,3.66-3.27,7.34-4.96,10.99,.43,.55,1.8,.34,2.49,.4,.3-.75,.59-1.5,.84-2.27,1.46,.05,2.93,.1,4.38,.31,.2,.78,.19,1.66,.53,2.38,.83,.08,1.67,.07,2.51,.08-1.02-3.91-2.06-7.81-3.05-11.72-.91-.07-1.82-.15-2.74-.18Zm1.18,2.71c.43,1.52,.67,3.09,.9,4.65-.92-.13-1.84-.21-2.76-.25,.53-1.5,1.29-2.9,1.86-4.39Z"/>
        <path id="path360" class="cls-2" d="M200.51,401.77c-.54,.02-1.08,.13-1.6,.33-1.37,.43-2.45,1.51-3.11,2.75-.59,2.13-.88,4.54,.18,6.58,1.38,2.58,5.06,3.53,7.54,1.98,1.8-.98,2.75-3.01,2.83-5-.03-1.71-.3-3.52-1.38-4.91-1.18-1.12-2.82-1.79-4.45-1.72Zm.29,2.22c.86-.02,1.72,.19,2.29,.87,.75,.9,.89,2.14,.93,3.27-.17,1-.25,2.14-1.06,2.86-.97,1.12-2.73,1.21-3.99,.56-1.14-.85-1.23-2.4-1.37-3.7,.08-1.42,.62-3.15,2.07-3.72,.36-.08,.74-.13,1.13-.14Z"/>
        <path id="path364" class="cls-2" d="M265.55,402.51c-3.05,.03-5.14,2.16-5.59,5.11-.38,4.87,2.93,7.94,7.65,6.78,2.6-.68,3.88-3.78,3.37-6.26-.3-3.17-2.22-5.49-5.44-5.63Zm1.59,9.78c-4.38,1.76-5.53-3.5-4.01-6.63,4.22-3.6,7.67,4.21,4.01,6.63Z"/>
        <path id="path368" class="cls-2" d="M299.53,402.5c.83,.09,1.65,.22,2.47,.33,1.02,2.89,2.12,5.75,3.14,8.64,.58-2.62,.95-5.28,1.38-7.93,.78,.08,1.55,.25,2.34,.33-.59,3.83-1.32,7.63-1.93,11.46-.83-.03-1.63-.26-2.46-.34-1.33-1.96-1.83-7.17-3.39-8.69-.48,2.63-.81,5.3-1.37,7.92-.7-.19-1.42-.25-2.12-.38,.6-3.78,1.31-7.55,1.94-11.32Z"/>
        <path id="path372" class="cls-2" d="M182.57,403.61c.54,3.8,.98,7.62,1.51,11.43,1.86-.26,3.74-.44,5.59-.74,1.95-.33,3.08-2.29,3.29-4.11,.1-1.47,.2-3.03-.45-4.39-.54-1.23-1.42-2.53-2.85-2.75-2.38-.24-4.74,.34-7.09,.57Zm5.54,1.29c1.54-.02,2.1,1.7,2.39,2.93,.24,1.43,.26,3.25-.95,4.27-1.1,.52-2.38,.5-3.57,.63-.25-2.45-.64-4.88-.92-7.33,.97-.33,2.03-.43,3.05-.5Z"/>
        <path id="path376" class="cls-2" d="M142.01,403.82c2.74,.71,5.54,1.18,8.3,1.82-.15,.64-.3,1.28-.46,1.91-2.04-.31-4.02-.88-6.05-1.23-.23,.76-.44,1.53-.61,2.31,1.85,.42,3.69,.91,5.56,1.25,0,.61-.23,1.19-.34,1.8-1.9-.11-3.74-.74-5.61-1.07-.19,1.02-.62,2-.63,3.05,2.07,.35,4.09,.91,6.15,1.34-.11,.64-.28,1.26-.43,1.9-2.87-.4-5.67-1.29-8.55-1.73,0-.92,.35-1.79,.52-2.68,.73-2.88,1.36-5.79,2.14-8.66Z"/>
        <path id="path380" class="cls-2" d="M218.92,403.55c-.47,3.87-.97,7.74-1.34,11.62,1.71,.12,3.4,.36,5.11,.54,.78,.07,1.58-.05,2.31-.33,1.26-.58,1.93-1.9,2.48-3.09,.79-2.18,1.04-4.94-.58-6.82-2.14-1.71-5.33-1.52-7.98-1.92Zm2.06,2.25c1.09,.07,2.19,.2,3.24,.51,2.42,1.3,1.27,5.2-.09,6.88-1.2,.95-2.77,.1-4.14,.2,.35-2.53,.66-5.06,.99-7.6Z"/>
        <path id="path388" class="cls-2" d="M249.08,405.22c3.09-.27,6.15-.84,9.24-1.1,.07,.66,.22,1.31,.33,1.96-1.16,.06-2.3,.24-3.46,.35,.24,3.2,.66,6.42,1.14,9.6-.84,.07-1.66,.25-2.51,.23-.3-3.11-.72-6.22-1.05-9.32-1.16-.11-2.31,.24-3.47,.29-.08-.67-.19-1.33-.22-2Z"/>
        <path id="path392" class="cls-2" d="M310.07,406.13c0-.7,.15-1.37,.35-2.03,3.04,.57,6.11,.99,9.16,1.54-.14,.62-.1,1.36-.45,1.9-1.14-.09-2.24-.46-3.39-.43-.53,3.09-1.1,6.17-1.69,9.24-.73-.08-1.45-.21-2.17-.32,.43-3.14,1.12-6.23,1.51-9.38-1.1-.2-2.21-.4-3.31-.53Z"/>
        <path id="path408" class="cls-2" d="M229.9,407.8c-1.06,2.83-.92,5.79,1.1,8.1,2.37,1.83,6.28,1.56,8.08-.95,1.26-1.72,1.45-4.06,.95-6.09-1.42-5.05-7.48-4.95-10.14-1.07Zm6.72,6.47c-4.38,2.63-6.07-3.02-4.1-6.17,4.55-3.6,6.9,2.18,4.1,6.17Z"/>
        <path id="path412" class="cls-2" d="M175.75,405.33c-.88,.11-1.68,.5-2.55,.64-.41,4.07-.58,8.18-.82,12.27,.84-.06,1.62-.41,2.42-.64,.1-.86,.15-1.73,.14-2.59,1.3-.37,2.63-.62,3.91-1.05,.54,.61,.99,1.29,1.48,1.94,.85-.19,1.68-.46,2.51-.73-2.38-3.27-4.77-6.54-7.09-9.84Zm-.64,2.82c.82,1.38,1.91,2.61,2.59,4.06-.93,.24-1.82,.59-2.75,.8,.09-1.62,0-3.25,.17-4.86Z"/>
        <path id="path420" class="cls-2" d="M321.09,405.86c.75,.17,1.51,.35,2.28,.42-.62,3.81-1.48,7.58-2.16,11.38-.75-.07-1.48-.25-2.23-.34,.7-3.82,1.38-7.64,2.1-11.46Z"/>
        <path id="path424" class="cls-2" d="M336.23,407.58c.97-1.14,2.53-1.46,3.94-1.68,1.83-.24,3.9,1.11,4.08,3.01-.75,.06-1.46,.37-2.21,.41-.33-.54-.67-1.17-1.35-1.3-1.06-.15-2.4,.06-2.96,1.08-.12,.49,0,.99,.31,1.38,2.05,.77,4.44,.1,6.42,1.12,1.13,.87,1.28,2.5,.92,3.79-.59,1.4-2.07,2.09-3.39,2.64-1.47,.26-3.13,.25-4.42-.6-.77-.56-1.29-1.44-1.45-2.38,.77-.08,1.53-.24,2.3-.34,.12,.31,.2,.67,.43,.93,1.11,.78,2.65,.54,3.76-.12,.86-.42,.89-2.05-.17-2.22-1.61-.26-3.28-.12-4.88-.47-2.23-.47-2.83-3.73-1.34-5.26Z"/>
        <path id="path428" class="cls-2" d="M151.4,408.76c.24-1.51,1.77-2.41,3.19-2.55,1.42-.11,2.94,.05,4.14,.87,.98,.71,1.42,1.9,1.46,3.08-.77-.03-1.55-.08-2.32-.15-.08-.39-.22-.77-.38-1.13-.9-.6-2.02-.72-3.07-.61-.57,.09-.82,.65-.97,1.14,.16,.37,.18,.87,.57,1.1,1.69,.81,3.69,.88,5.23,2.01,1.32,.99,1.08,2.99,.35,4.28-.88,.95-2.12,1.71-3.45,1.66-1.37,.08-2.76-.28-3.94-.98-1.07-.69-1.64-2-1.46-3.26,.77,.07,1.53,.2,2.3,.29-.1,1.1,1.05,1.91,2.06,1.88,.79-.02,1.73,.14,2.36-.44,.6-.57,.42-1.73-.38-2-1.78-.68-3.84-.89-5.27-2.27-.84-.73-.51-1.96-.42-2.92Z"/>
        <path id="path432" class="cls-2" d="M161.77,407.49c3.12-.19,6.24-.51,9.37-.64,.03,.7,.05,1.4,.02,2.1-1.09,.04-2.2,.04-3.28,.23,.09,3.15,.31,6.29,.58,9.43-.82,.06-1.65,.18-2.46,.04-.06-3.12-.45-6.23-.64-9.34-1.14,.08-2.27,.21-3.41,.26-.12-.69-.15-1.39-.17-2.09Z"/>
        <path id="path436" class="cls-2" d="M324.5,406.7c.84,.1,1.79-.15,2.56,.24,1.56,2,2.3,6.33,4.12,7.94,.16-2.58,.34-5.16,.48-7.73,.78,.06,1.57,.1,2.34,.24-.26,3.37-.53,6.73-.76,10.1-.07,.46,.06,.98-.25,1.38-.75-.09-1.5-.15-2.25-.2-1.35-2.81-2.73-5.61-4.14-8.39-.19,2.71-.39,5.42-.62,8.12-.77-.04-1.54-.07-2.31-.09,.28-3.87,.59-7.73,.84-11.6Z"/>
      </g>
    </g>
    <g id="g4685">
      <path id="path124" class="cls-6" d="M295.63,229.04c4.46,4,9.67,7.11,13.86,11.49,4.92,5.45,6.82,12.2,7.13,19.37-6.33-2.15-13.66-13.46-16.43-18.38-1.31-4.07-4.66-8.03-4.56-12.48Z"/>
      <path id="path132" class="cls-6" d="M318.17,244.67c8.77,11.46,11.46,19.72,5.21,33.1-12.9-2.13-18.4-16.18-22.09-27.1,3.12,8.61,10.36,13.21,17.93,17.62,2.28-8.1,.15-16.01-1.05-23.61Z"/>
      <path id="path148" class="cls-6" d="M331.26,261c8.74,14.88-1.23,26.33-5.64,39.97-.14-.01-.43-.04-.58-.06-6.97-10.64-15.68-19.07-18.54-32.1,3.23,6.79,10.4,14,16.77,18.15,.27,.15,.74,.36,.99,.06,6.65-8.27,5.93-16.17,6.99-26.02Z"/>
      <path id="path156" class="cls-6" d="M339.85,282.35c3.58,17.08-6.45,25.72-13.39,39.04-.37,.78-.79,1.57-.81,2.46-.14-.02-.42-.06-.57-.09-6.58-12.7-12.88-24.09-16-38.32,1.08,2.73,14.06,23.82,16.67,22.96,7.79-7.56,10.81-15.99,14.11-26.05Z"/>
      <path id="path160" class="cls-6" d="M343.44,302.72c.36-1.13,.38-2.33,.5-3.5,1.82,16.67-5.61,28.52-15.78,40.51-1.33,1.77-3.52,3.38-4.07,5.63-.08-.02-.25-.05-.33-.07-1.22-4.55-3.39-8.86-5.44-13.1-4.17-7.67-6.54-15.69-6.58-24.42,2.63,6.06,5.85,11.45,9.41,17.13,1.2,1.05,2.9,6.25,4.24,6.49,1.54-3.05,4.03-5.44,6.11-8.11,5.14-6.08,9.38-13,11.94-20.56Z"/>
      <path id="path176" class="cls-6" d="M345.05,319.86l.39-.11c0,3.31-.48,6.6-.78,9.89-1.17,10.54-6.64,18.09-13.27,25.8-1.38,1.61-2.95,3.03-4.55,4.4-4.89,.32-6.95,1.41-8.3-3.48-1.68-7.04-6.7-12.79-8.03-19.95-.57-4.19,.21-8.39,.57-12.56,2.75,10.08,7.52,19.62,11.51,29.31,6.06-7.03,12.73-13.51,17.67-21.43,2-3.78,4.04-7.63,4.79-11.89Z"/>
      <path id="path188" class="cls-6" d="M306.65,339.98c1.21,6.96,4.12,13.36,6.88,19.78-2.73-.09-5.43-.45-8.15-.66-.04-6.48-.29-12.77,1.27-19.12Z"/>
      <path id="path196" class="cls-6" d="M344.2,345.44c-1.06,4.26-1.77,8.42-2.18,12.81-2.81,.53-5.54,.74-8.31,1.05,3.78-4.24,8.35-8.46,10.49-13.86Z"/>
      <path id="path220" class="cls-6" d="M301.5,353.26c.65,1.84,1.01,3.77,1.34,5.69-1.85-.13-3.7-.05-5.55-.07,1.05-1.73,2.12-4.83,4.21-5.62Z"/>
      <path id="path268" class="cls-6" d="M339,369.54c-.73,2.84-1.39,5.97-2.66,8.63-.85-.95-5.17-2.74-4.61-4.4,2.16-1.7,4.85-2.92,7.27-4.23Z"/>
      <path id="path324" class="cls-6" d="M295.53,383.74c2.78,.08,5.53,.43,8.28,.83,.19,2.24,.54,4.48,1.14,6.65,2.78-1.03,4.94-5.42,7.97-5.53,4.63,.75,9.3,1.33,13.94,1.99-3.93,4.06-9.52,6.57-14.6,8.98-4.58-.5-9.18-.89-13.74-1.6-1.76-3.55-2.89-7.35-3-11.32Z"/>
      <path id="path348" class="cls-6" d="M332.08,389.92c-.42,3.46-2.86,6.29-5.55,8.33-2.66-.2-5.02-.54-7.8-.76,5.35-.9,8.87-4.96,13.35-7.57Z"/>
      <path id="path304" class="cls-6" d="M277.63,387.86c-.59,.54-1.3,1.02-1.66,1.76-.36,1.12-1.3,1.9-2.2,2.6-.6,.43-.94,1.09-1.4,1.65-.32,.42-.74,.82-.78,1.38,1.75-.12,3.5-.25,5.25-.37,.24-1.55,.28-3.14,.42-4.7,.1-.78,.32-1.54,.37-2.32Z"/>
      <path id="path4683" class="cls-6" d="M283.2,383.26l-1.2,11.32c3.15-.15,6.3-.21,9.45-.08-1.23-3.69-3.16-7.27-3.85-11.12-1.46-.24-2.94-.04-4.41-.12Z"/>
    </g>
    <g id="g4720">
      <path id="path4722" class="cls-6" d="M190.08,229.04c-4.46,4-9.67,7.11-13.86,11.49-4.92,5.45-6.82,12.2-7.13,19.37,6.33-2.15,13.66-13.46,16.43-18.38,1.31-4.07,4.66-8.03,4.56-12.48Z"/>
      <path id="path4724" class="cls-6" d="M167.54,244.67c-8.77,11.46-11.46,19.72-5.21,33.1,12.9-2.13,18.4-16.18,22.09-27.1-3.12,8.61-10.36,13.21-17.93,17.62-2.28-8.1-.15-16.01,1.05-23.61Z"/>
      <path id="path4726" class="cls-6" d="M154.44,261c-8.74,14.88,1.23,26.33,5.64,39.97,.14-.01,.43-.04,.58-.06,6.97-10.64,15.68-19.07,18.54-32.1-3.23,6.79-10.4,14-16.77,18.15-.27,.15-.74,.36-.99,.06-6.65-8.27-5.93-16.17-6.99-26.02Z"/>
      <path id="path4728" class="cls-6" d="M145.86,282.35c-3.58,17.08,6.45,25.72,13.39,39.04,.37,.78,.79,1.57,.81,2.46,.14-.02,.42-.06,.57-.09,6.58-12.7,12.88-24.09,16-38.32-1.08,2.73-14.06,23.82-16.67,22.96-7.79-7.56-10.81-15.99-14.11-26.05Z"/>
      <path id="path4730" class="cls-6" d="M142.27,302.72c-.36-1.13-.38-2.33-.5-3.5-1.82,16.67,5.61,28.52,15.78,40.51,1.33,1.77,3.52,3.38,4.07,5.63,.08-.02,.25-.05,.33-.07,1.22-4.55,3.39-8.86,5.44-13.1,4.17-7.67,6.54-15.69,6.58-24.42-2.63,6.06-5.85,11.45-9.41,17.13-1.2,1.05-2.9,6.25-4.24,6.49-1.54-3.05-4.03-5.44-6.11-8.11-5.14-6.08-9.38-13-11.94-20.56Z"/>
      <path id="path4732" class="cls-6" d="M140.66,319.86l-.39-.11c0,3.31,.48,6.6,.78,9.89,1.17,10.54,6.64,18.09,13.27,25.8,1.38,1.61,2.95,3.03,4.55,4.4,4.89,.32,6.95,1.41,8.3-3.48,1.68-7.04,6.7-12.79,8.03-19.95,.57-4.19-.21-8.39-.57-12.56-2.75,10.08-7.52,19.62-11.51,29.31-6.06-7.03-12.73-13.51-17.67-21.43-2-3.78-4.04-7.63-4.79-11.89Z"/>
      <path id="path4734" class="cls-6" d="M179.06,339.98c-1.21,6.96-4.12,13.36-6.88,19.78,2.73-.09,5.43-.45,8.15-.66,.04-6.48,.29-12.77-1.27-19.12Z"/>
      <path id="path4736" class="cls-6" d="M141.51,345.44c1.06,4.26,1.77,8.42,2.18,12.81,2.81,.53,5.54,.74,8.31,1.05-3.78-4.24-8.35-8.46-10.49-13.86Z"/>
      <path id="path4738" class="cls-6" d="M184.21,353.26c-.65,1.84-1.01,3.77-1.34,5.69,1.85-.13,3.7-.05,5.55-.07-1.05-1.73-2.12-4.83-4.21-5.62Z"/>
      <path id="path4740" class="cls-6" d="M146.71,369.54c.73,2.84,1.39,5.97,2.66,8.63,.85-.95,5.17-2.74,4.61-4.4-2.16-1.7-4.85-2.92-7.27-4.23Z"/>
      <path id="path4742" class="cls-6" d="M190.18,383.74c-2.78,.08-5.53,.43-8.28,.83-.19,2.24-.54,4.48-1.14,6.65-2.78-1.03-4.94-5.42-7.97-5.53-4.63,.75-9.3,1.33-13.94,1.99,3.93,4.06,9.52,6.57,14.6,8.98,4.58-.5,9.18-.89,13.74-1.6,1.76-3.55,2.89-7.35,3-11.32Z"/>
      <path id="path4744" class="cls-6" d="M153.63,389.92c.42,3.46,2.86,6.29,5.55,8.33,2.66-.2,5.02-.54,7.8-.76-5.35-.9-8.87-4.96-13.35-7.57Z"/>
      <path id="path4746" class="cls-6" d="M208.07,387.86c.59,.54,1.3,1.02,1.66,1.76,.36,1.12,1.3,1.9,2.2,2.6,.6,.43,.94,1.09,1.4,1.65,.32,.42,.74,.82,.78,1.38-1.75-.12-3.5-.25-5.25-.37-.24-1.55-.28-3.14-.42-4.7-.1-.78-.32-1.54-.37-2.32Z"/>
      <path id="path4748" class="cls-6" d="M202.51,383.26l1.2,11.32c-3.15-.15-6.3-.21-9.45-.08,1.23-3.69,3.16-7.27,3.85-11.12,1.46-.24,2.94-.04,4.41-.12Z"/>
    </g>
    <g id="g4795">
      <path id="path200" class="cls-9" d="M208.79,383.84c2.08,.57,4.65,2.7,3.18,4.99-.63,.54-1.5,.68-2.3,.79,.36,1.12,1.31,1.9,2.21,2.6l.26,.19c4.16-1.92,3.4-6.11,2.05-9.65-5.21-5.67-10.57-11.06-15.76-16.91-5.5-5.86-7.49-7.32-15.62-6.9-16.56,1.51-34.09,2.27-49.74-4.09-2.75-1.25-5.31-2.89-8.1-4.04,5.04,11.73,19.1,16.57,28.95,22.95-2.43,5.57-11.64,7.19-16.76,9.12,6.56,3.73,14.18,4.87,21.62,4.78,10.88-1.52,19.05-3.33,32.7-4.12"/>
      <g id="g2665">
        <path id="path224" class="cls-2" d="M192.87,367.21c.47,.02,.93,.02,1.4,.02,.14,2.5,.17,5.01,.29,7.52-.55,.04-1.11,.04-1.66,.03-1.1-1.77-2.11-3.6-3.28-5.32,0,1.82,.23,3.64,.24,5.46-.46,0-.91,.02-1.37,.05-.21-.35-.18-.77-.19-1.15-.02-2.15-.16-4.29-.16-6.43,.54,0,1.09,0,1.64,.01,1.03,1.73,2.07,3.47,3.21,5.13,.02-1.4-.11-2.8-.15-4.2,0-.37-.17-.77,.02-1.11Z"/>
        <path id="path232" class="cls-2" d="M183.46,367.65c-.3,0-.61,0-.91,.01-.7,2.57-1.59,5.08-2.25,7.66,.54,0,1.09,0,1.64-.05,.09-.54,.23-1.07,.38-1.6,.98-.04,1.96-.08,2.94-.06,.09,.48,.21,.96,.34,1.44,.58,0,1.17,0,1.75-.02-.95-2.48-1.99-4.91-2.98-7.37-.3,0-.61,0-.91,0Zm-.09,1.76c.57,.9,.85,1.95,1.27,2.92-.64,.05-1.27,.09-1.91,.1,.18-1.02,.44-2.01,.64-3.02Z"/>
        <path id="path236" class="cls-2" d="M177.08,367.93c.5,0,1.01,0,1.51,0,.13,1.78,.25,3.57,.4,5.35,.24,1.02-.39,2.2-1.44,2.45-.82,.18-1.79,.23-2.48-.32-.74-.63-.79-1.66-.98-2.54,.46-.04,.94-.04,1.38-.22,.43,.51,.06,1.3,.55,1.83,.43,0,.86-.01,1.29-.06,.29-2.16-.17-4.34-.24-6.5Z"/>
        <path id="path252" class="cls-2" d="M165.41,369c-.61,.02-1.22,.27-1.54,.81-.52,.74-.43,1.93,.3,2.51,.7,.56,1.65,.3,2.42,.04,.84-.88,.81-2.35-.12-3.13-.31-.15-.69-.23-1.05-.22Zm.1,.8c.07,0,.14,.02,.22,.04,.49,.43,.54,1.09,.36,1.69-.27,.37-.74,.25-1.13,.31-.66-.66-.5-2.13,.55-2.04Z"/>
        <path id="path280" class="cls-2" d="M160.26,370.31c.36-.17,.74-.26,1.13-.31,.45,2.44,.85,4.9,1.39,7.33-.48,.24-1.02,.27-1.55,.32-.29-1.67-.69-3.31-.89-4.99-.57-.03-1.13,.1-1.68,.24-.1-.33-.2-.65-.3-.97,.9-.03,1.99-.55,1.9-1.61Z"/>
        <path id="path292" class="cls-2" d="M164.1,373.44c1.09-.14,2.15-.48,3.25-.51,.02,.18,.05,.55,.07,.74-1.03,.24-2.08,.38-3.12,.56-.05-.2-.15-.6-.2-.79Z"/>
      </g>
    </g>
    <g id="g4805">
      <path id="path4772" class="cls-9" d="M276.85,383.84c-1.33,.38-2.65,1.13-3.3,2.39-1.03,2.14,.52,3.1,2.42,3.39-.36,1.12-1.31,1.9-2.21,2.6l-.26,.19c-6.93-3.74-1.57-10.76,2.46-14.42,4.25-3.56,7.51-8.09,11.25-12.14,5.5-5.86,7.49-7.32,15.62-6.9,16.56,1.51,34.09,2.27,49.74-4.09,2.75-1.25,5.31-2.89,8.1-4.04-5.04,11.73-19.1,16.57-28.95,22.95,2.43,5.57,11.64,7.19,16.76,9.12-6.56,3.73-14.18,4.87-21.62,4.78-10.88-1.52-21.75-3.13-32.7-4.12"/>
      <g id="g2673">
        <path id="path228" class="cls-2" d="M299.77,367.22c.41,.03,.87-.02,1.23,.24-.13,2.42-.22,4.85-.26,7.28-.51,.02-1.02,.03-1.53,.01,.05-1.68,.2-3.36,.27-5.04-.63-.14-1.27-.15-1.9-.17,.03-.36,.06-.71,.1-1.06,.59,.03,1.16-.09,1.69-.35,.15-.3,.29-.6,.41-.91Z"/>
        <path id="path240" class="cls-2" d="M304.9,369c-.27,1.03-.41,2.4,.51,3.15,.75,.81,2.01,.62,2.9,.17-.03,1.03-.82,2.29-2,1.83-.1-.25-.19-.51-.28-.76-.46-.03-.92-.05-1.37-.05-.02,1.8,2.32,2.49,3.66,1.66,1.06-.82,1.26-2.27,1.48-3.51-.03-1.08-.04-2.33-.79-3.19-1.11-.91-3.57-.87-4.12,.69Zm2.95,2.4c-1.59,.43-2.22-.91-1.55-2.12,1.45-1.29,2.82,1.01,1.55,2.12Z"/>
        <path id="path244" class="cls-2" d="M314.5,368.42c-2.31,.27-2.01,2.98-1.4,3.46-1.33,.4-1.56,2.27-.72,3.24,.71,.94,2.01,1,3.09,.88,.77-.09,1.16-.84,1.51-1.44,.42-.86,.03-1.83-.5-2.55,.63-.56,.96-1.46,.67-2.27-.54-1.05-1.31-1.32-2.64-1.33Zm1.34,1.72c.21,.44-.05,1.21-.44,1.23-2.36,.33-1.35-3.03,.44-1.23Zm-1.2,2.25c1.74,.48,1,3.17-.76,2.25-.82-.73-.29-2.11,.76-2.25Z"/>
        <path id="path260" class="cls-2" d="M321.84,369.41c-.75,.05-1.45,.4-1.81,1.12-.56,.77-.59,1.78-.27,2.66,.55,1.13,2.18,1.6,3.22,.88,.03,.82-.58,1.95-1.53,1.74-.43-.02-.58-.46-.74-.77-.5-.05-1-.09-1.49-.08,.21,.8,.63,1.65,1.49,1.9,1.14,.39,2.95,.16,3.26-1.23,.47-1.47,1.03-3.09,.53-4.63-.37-1.06-1.56-1.65-2.65-1.58Zm1.26,3.42c-1.52,1.09-2.66-.77-1.69-1.92,1.22-.95,2.16,.54,1.69,1.92Z"/>
      </g>
    </g>
    <path id="path452" class="cls-6" d="M304.19,420.47c.69,.12,1.38,.25,2.07,.42-.26,1.32-.89,2.53-1.79,3.52-1.78,1.98-4.01,3.51-6.27,4.89-7,3.69-14.9,5.39-22.75,5.86-3.04,.18-6.07-.06-9.1-.15-2.98-.34-5.91-1.01-8.85-1.6-3.48-.69-7.12-.82-10.56,.12,.05,.07,.14,.21,.19,.27,5.2,2.46,9.85,5.97,14.15,9.78,1.87,1.86,4.12,3.41,5.56,5.65-.27,.06-.82,.17-1.09,.22,.3,.13,.61,.22,.94,.23h-5.32c-1-.24-2.17-.38-2.83-1.27-1.14-1.56-2.12-3.23-3.34-4.72-1.59-2.05-3.56-3.78-5.68-5.25-2.07-1.35-4.35-2.33-6.55-3.43-3.17,1.38-6.36,2.88-8.98,5.18-2.71,2.18-4.65,5.11-6.55,7.98-.64,1.12-2.03,1.3-3.17,1.52h-2.66c-.91-.18-1.86-.09-2.72-.47,.91-1.39,2.18-2.47,3.4-3.57,3.26-3.17,6.82-6.04,10.59-8.59,1.91-1.29,4-2.27,5.94-3.5-3.57-1.01-7.36-.8-10.95-.05-2.75,.57-5.51,1.15-8.3,1.51-3.55,.1-7.11,.39-10.65,.05-7.42-.58-14.83-2.31-21.44-5.81-2.3-1.42-4.57-2.97-6.35-5.04-.75-.92-1.45-1.98-1.53-3.21,.66-.19,1.32-.32,2-.43,2.59,1.49,5.28,3.16,8.36,3.29,3.46,.04,6.92,.01,10.38,.04,3.46,.28,6.93,.08,10.39,.38,4.09-.02,8.16,.46,12.19,1.13,6.47,1.22,12.88,2.94,18.87,5.72,.58,.32,1.3,.48,1.91,.11,3.32-1.53,6.76-2.8,10.29-3.77,6.81-1.93,13.86-3.17,20.95-3.2,3.45-.29,6.92-.09,10.37-.38,3.46-.02,6.93,0,10.39-.03,3.12-.15,5.94-1.72,8.49-3.4Z"/>
  </g>
  <g>
    <g>
      <path class="cls-4" d="M34.91,145.95l27.6,23.23-6.1,49.84c19.19-13.95,39.56-25.49,60.69-34.65V106.58c-28.47,9.74-56.07,22.87-82.19,39.36Z"/>
      <path class="cls-4" d="M450.62,145.95c-26.12-16.5-53.71-29.63-82.19-39.36v77.79c21.13,9.15,41.49,20.7,60.69,34.65l-6.1-49.84,27.6-23.23Z"/>
      <polygon class="cls-4" points="80.63 174.28 117.1 184.37 117.1 150.26 80.63 174.28"/>
      <polygon class="cls-4" points="404.9 174.28 368.43 184.37 368.43 150.26 404.9 174.28"/>
    </g>
    <path class="cls-4" d="M404.9,174.28c-103.81-43-220.45-43-324.27,0V90.24c103.81-43,220.45-43,324.27,0v84.05Z"/>
  </g>
  <g>
    <path class="cls-7" d="M111.92,96.32c7.03-2.41,14.11-4.62,21.23-6.63,4.65-1.31,8.15-.91,10.48,1.12,2.33,2.03,3.5,5.48,3.5,10.32,0,4.98-1.27,9.17-3.81,12.62-2.54,3.45-6.41,5.86-11.59,7.34-2.34,.67-4.68,1.36-7.02,2.08v18.29c-4.28,1.31-8.55,2.69-12.8,4.15v-49.29Zm12.8,16.86c1.04-.32,2.09-.64,3.14-.95,2.47-.73,4.21-1.74,5.21-3.04,1-1.3,1.5-2.75,1.5-4.34,0-1.55-.44-2.74-1.31-3.57-.87-.83-2.51-.9-4.9-.2-1.22,.36-2.43,.73-3.65,1.1v10.99Z"/>
    <path class="cls-7" d="M152.28,109.45c0-8.04,1.91-14.76,5.73-20.08,3.83-5.31,9.17-8.65,16.04-9.85,7.05-1.23,12.5,.2,16.33,4.1,3.83,3.9,5.75,9.85,5.75,17.78,0,5.76-.84,10.58-2.51,14.48-1.67,3.9-4.09,7.08-7.25,9.58-3.16,2.5-7.09,4.13-11.79,4.94-4.78,.83-8.72,.71-11.83-.43-3.12-1.14-5.64-3.39-7.57-6.79-1.93-3.4-2.89-7.97-2.89-13.73Zm13.01-2.72c0,4.98,.79,8.39,2.38,10.26,1.58,1.87,3.74,2.56,6.48,2.08,2.81-.49,4.99-1.9,6.53-4.28,1.54-2.37,2.32-6.31,2.32-11.82,0-4.64-.81-7.91-2.42-9.8-1.61-1.89-3.79-2.6-6.55-2.12-2.64,.46-4.75,1.94-6.35,4.42-1.59,2.48-2.39,6.24-2.39,11.26Z"/>
    <path class="cls-7" d="M203.22,76.35c4.39-.44,8.79-.82,13.19-1.12v37.15c6.87-.47,13.75-.77,20.63-.89v12.14c-11.29,.2-22.58,.87-33.83,2v-49.29Z"/>
    <path class="cls-7" d="M243.59,74.29c4.42,0,8.84,.06,13.26,.19v49.29c-4.42-.14-8.84-.2-13.26-.19v-49.29Zm6.43-13c3.41,.05,6.81,.14,10.22,.27-3.14,3.23-6.29,6.49-9.43,9.79-1.9-.03-3.8-.05-5.69-.05,1.64-3.35,3.27-6.69,4.91-10.01Z"/>
    <path class="cls-7" d="M294.75,106.53c3.84,1.82,7.68,3.7,11.51,5.63-.77,3.62-1.99,6.57-3.65,8.84-1.66,2.27-3.72,3.88-6.19,4.84-2.47,.96-5.61,1.22-9.43,.81-4.64-.49-8.43-1.59-11.37-3.37-2.94-1.78-5.49-4.68-7.62-8.73-2.14-4.04-3.21-9.11-3.21-15.23,0-8.15,1.88-14.33,5.65-18.47,3.76-4.14,9.08-5.94,15.95-5.23,5.37,.56,9.59,2.35,12.65,5.28,3.06,2.93,5.34,7.12,6.82,12.55-3.86,.41-7.73,.87-11.6,1.39-.41-1.55-.83-2.7-1.28-3.45-.74-1.25-1.64-2.26-2.7-3-1.07-.75-2.26-1.19-3.58-1.33-2.99-.31-5.28,.87-6.87,3.51-1.2,1.95-1.81,5.14-1.81,9.55,0,5.46,.72,9.27,2.16,11.42,1.44,2.15,3.45,3.35,6.05,3.62,2.52,.26,4.42-.34,5.71-1.82,1.29-1.48,2.22-3.75,2.8-6.79Z"/>
    <path class="cls-7" d="M313.14,80.13c4.37,.75,8.73,1.57,13.09,2.46v49.29c-4.35-.89-8.71-1.71-13.09-2.46v-49.29Z"/>
    <path class="cls-7" d="M361.22,132.53c-4.85-1.45-9.72-2.8-14.6-4.07-.68,2.54-1.36,5.07-2.04,7.61-4.4-1.11-8.81-2.15-13.24-3.12,5.27-15.28,10.52-30.45,15.76-45.52,4.69,1.22,9.37,2.53,14.03,3.92,5.19,17.98,10.36,36.06,15.51,54.25-4.43-1.52-8.88-2.95-13.34-4.31-.69-2.92-1.38-5.84-2.07-8.76Zm-2.66-11.44c-1.53-6.35-3.06-12.69-4.59-19.02-1.52,5.48-3.03,10.98-4.55,16.48,3.05,.81,6.1,1.66,9.14,2.55Z"/>
  </g>
  <g>
    <g>
      <path class="cls-5" d="M452.56,459.61l-27.6-23.23,6.1-49.84c-19.19,13.95-39.56,25.49-60.69,34.65v77.79c28.47-9.74,56.07-22.87,82.19-39.36Z"/>
      <path class="cls-5" d="M36.86,459.61c26.12,16.5,53.71,29.63,82.19,39.36v-77.79c-21.13-9.15-41.49-20.7-60.69-34.65l6.1,49.84-27.6,23.23Z"/>
      <polygon class="cls-5" points="406.84 431.27 370.37 421.18 370.37 455.29 406.84 431.27"/>
      <polygon class="cls-5" points="82.58 431.27 119.04 421.18 119.04 455.29 82.58 431.27"/>
    </g>
    <path class="cls-5" d="M82.58,431.27c103.81,43,220.45,43,324.27,0v84.05c-103.81,43-220.45,43-324.27,0v-84.05Z"/>
  </g>
  <g>
    <path class="cls-7" d="M139.46,466.99c7.08,2.06,14.21,3.91,21.38,5.55,4.68,1.07,8.2,3.1,10.54,6.19,2.34,3.09,3.52,7.04,3.51,11.88,0,4.97-1.28,8.63-3.83,10.92-2.55,2.29-6.44,2.89-11.65,1.68-2.36-.55-4.71-1.12-7.06-1.72,0,6.1,0,12.19,0,18.29-4.31-1.09-8.61-2.26-12.89-3.5v-49.29Zm12.89,24.51c1.05,.27,2.1,.53,3.16,.78,2.49,.61,4.24,.5,5.25-.29,1.01-.79,1.51-1.98,1.51-3.57,0-1.55-.44-2.96-1.31-4.23-.88-1.28-2.52-2.19-4.93-2.77-1.22-.3-2.45-.6-3.67-.91,0,3.66,0,7.33,0,10.99Z"/>
    <path class="cls-7" d="M181.68,476.7c11.65,1.99,23.37,3.44,35.12,4.34v10.52c-7.36-.56-14.7-1.34-22.02-2.33v7.83c6.79,.92,13.6,1.66,20.42,2.21v10.05c-6.82-.55-13.63-1.29-20.42-2.21v9.72c7.53,1.02,15.09,1.81,22.66,2.38,0,3.72,0,7.44,0,11.16-11.96-.9-23.89-2.36-35.75-4.39,0-16.43,0-32.86,0-49.29Z"/>
    <path class="cls-7" d="M224.61,481.56c4.1,.23,8.2,.39,12.3,.49,5.35,9.22,10.71,18.32,16.06,27.31,0-9.09,0-18.18,0-27.27,4.14-.08,8.28-.22,12.42-.43v49.29c-4.14,.21-8.28,.35-12.42,.43-5.32-8.92-10.65-17.96-15.97-27.11v27.06c-4.13-.1-8.26-.26-12.39-.49v-49.29Z"/>
    <path class="cls-7" d="M299.67,519.53c-4.95,.7-9.91,1.31-14.88,1.81-.69,2.78-1.38,5.56-2.07,8.34-4.47,.43-8.95,.78-13.43,1.06,5.34-16.75,10.67-33.62,15.99-50.6,4.77-.49,9.54-1.08,14.3-1.75,5.3,15.68,10.59,31.24,15.87,46.7-4.54,.84-9.1,1.6-13.66,2.27-.71-2.61-1.41-5.22-2.12-7.83Zm-2.71-10.28c-1.56-5.7-3.12-11.4-4.68-17.12-1.54,6.09-3.09,12.18-4.64,18.25,3.11-.34,6.21-.72,9.32-1.14Z"/>
    <path class="cls-7" d="M319.58,475.02c4.33-.85,8.65-1.78,12.96-2.78v37.15c6.72-1.56,13.41-3.31,20.07-5.24,0,4.05,0,8.09,0,12.14-10.91,3.17-21.93,5.84-33.03,8.02v-49.29Z"/>
  </g>
  <g>
    <path class="cls-3" d="M214.33,562.82h26.81v7.81h-9v23.82h-8.82v-23.82h-9v-7.81Z"/>
    <path class="cls-3" d="M242.66,578.66c0-5.16,1.3-9.18,3.9-12.06,2.6-2.88,6.21-4.32,10.84-4.32s8.41,1.41,10.98,4.24c2.57,2.83,3.86,6.79,3.86,11.88,0,3.7-.56,6.73-1.68,9.09-1.12,2.37-2.75,4.21-4.87,5.52-2.12,1.32-4.77,1.97-7.93,1.97s-5.88-.57-7.99-1.7-3.82-2.93-5.13-5.39c-1.31-2.46-1.97-5.54-1.97-9.24Zm8.82,.04c0,3.19,.54,5.49,1.61,6.88,1.07,1.4,2.53,2.09,4.37,2.09s3.36-.68,4.4-2.05c1.04-1.37,1.56-3.82,1.56-7.36,0-2.98-.54-5.15-1.63-6.53-1.08-1.37-2.55-2.06-4.41-2.06s-3.21,.7-4.28,2.09c-1.08,1.4-1.62,3.7-1.62,6.93Z"/>
  </g>
</svg>